<?xml version="1.0" encoding="utf-8"?>
<!-- Generator: Adobe Illustrator 16.0.0, SVG Export Plug-In . SVG Version: 6.00 Build 0)  -->
<!DOCTYPE svg PUBLIC "-//W3C//DTD SVG 1.1//EN" "http://www.w3.org/Graphics/SVG/1.1/DTD/svg11.dtd">
<svg xmlns="http://www.w3.org/2000/svg" xmlns:xlink="http://www.w3.org/1999/xlink" version="1.1" id="data_x5F_visualization" x="0px" y="0px" width="512" height="512" viewBox="0 0 512 512" enable-background="new 0 0 512 512" xml:space="preserve">
<g>
	<path fill="#7ED4F8" d="M48.376,504.574h34.943c2.529,0,4.58-2.051,4.58-4.58V398.752c0-2.859-2.318-5.18-5.178-5.18H48.976   c-2.859,0-5.178,2.32-5.178,5.18v101.242C43.798,502.523,45.847,504.574,48.376,504.574z"/>
	<path fill="#7ED4F8" d="M117.728,504.574h34.945c2.529,0,4.58-2.051,4.58-4.58v-74.791c0-2.861-2.318-5.18-5.18-5.18h-33.748   c-2.859,0-5.178,2.318-5.178,5.18v74.791C113.147,502.523,115.198,504.574,117.728,504.574z"/>
	<path fill="#7ED4F8" d="M187.079,504.574h34.943c2.529,0,4.58-2.051,4.58-4.58v-47.281c0-2.861-2.318-5.178-5.178-5.178h-33.748   c-2.859,0-5.178,2.316-5.178,5.178v47.281C182.499,502.523,184.55,504.574,187.079,504.574z"/>
	<path fill="#FD7851" d="M93.7,184.572c-7.09,2.467-10.77,6.146-13.236,13.234c-1.238,3.561-6.199,3.561-7.439,0   c-2.467-7.088-6.146-10.768-13.236-13.234c-3.559-1.238-3.559-6.201,0-7.438c7.09-2.469,10.77-6.148,13.236-13.236   c1.24-3.561,6.201-3.561,7.439,0c2.467,7.088,6.146,10.768,13.236,13.236C97.259,178.371,97.259,183.334,93.7,184.572z"/>
	<path fill="#FD7851" d="M501.511,318.305c-7.09,2.469-10.77,6.148-13.236,13.236c-1.238,3.561-6.201,3.561-7.441,0   c-2.465-7.088-6.145-10.768-13.232-13.236c-3.561-1.236-3.561-6.199,0-7.438c7.088-2.467,10.768-6.146,13.232-13.236   c1.24-3.561,6.203-3.561,7.441,0c2.467,7.09,6.146,10.77,13.236,13.236C505.069,312.105,505.069,317.068,501.511,318.305z"/>
	<path fill="#FD7851" d="M66.03,69.24H11.116c-1.906,0-3.449-1.543-3.449-3.449V10.879c0-1.906,1.543-3.451,3.449-3.451H66.03   c1.904,0,3.449,1.545,3.449,3.451v54.912C69.479,67.697,67.935,69.24,66.03,69.24z"/>
	<path fill="#FD7851" d="M283.456,69.24h-54.912c-1.908,0-3.451-1.543-3.451-3.449V10.879c0-1.906,1.543-3.451,3.451-3.451h54.912   c1.904,0,3.449,1.545,3.449,3.451v54.912C286.905,67.697,285.36,69.24,283.456,69.24z"/>
	<path fill="#FD7851" d="M500.882,69.238h-54.914c-1.904,0-3.449-1.543-3.449-3.449V10.875c0-1.904,1.545-3.449,3.449-3.449h54.914   c1.904,0,3.451,1.545,3.451,3.449v54.914C504.333,67.695,502.786,69.238,500.882,69.238z"/>
	<path fill="#7ED4F8" d="M440.03,417.859c0,45.746-35.443,83.234-80.406,86.479v-82.822l71.781-41.377   C436.95,391.547,440.03,404.336,440.03,417.859z"/>
	<path fill="#FFCFA7" d="M346.974,331.355v172.982c-44.943-3.244-80.387-40.732-80.387-86.479   C266.587,372.088,302.03,334.598,346.974,331.355z"/>
	<path fill="#61D0A9" d="M425.104,369.168l-65.48,37.719v-75.531C386.854,333.311,410.614,347.846,425.104,369.168z"/>
	<path fill="#007FD8" d="M431.405,380.139l-71.781,41.377v82.822c-2.094,0.162-4.186,0.232-6.326,0.232   c-2.139,0-4.23-0.07-6.324-0.232V331.355c2.094-0.16,4.186-0.229,6.324-0.229c2.141,0,4.232,0.068,6.326,0.229v75.531l65.48-37.719   C427.45,372.662,429.589,376.32,431.405,380.139z"/>
	<path fill="#8BBCE2" d="M212.837,44.322h-20.701v-12.65h20.701V44.322z M176.036,44.322h-20.699v-12.65h20.699V44.322z    M139.237,44.322h-20.701v-12.65h20.701V44.322z M102.437,44.322H81.737v-12.65h20.699V44.322z"/>
	<path fill="#8BBCE2" d="M430.263,44.322h-20.699v-12.65h20.699V44.322z M393.464,44.322h-20.701v-12.65h20.701V44.322z    M356.663,44.322h-20.699v-12.65h20.699V44.322z M319.862,44.322h-20.699v-12.65h20.699V44.322z"/>
	<path fill="#3081BE" d="M249.687,154.914v12.648h12.627v-12.648H249.687z"/>
	<path fill="#3081BE" d="M249.687,69.24v12.65h12.627V69.24H249.687z"/>
	<path fill="#8BBCE2" d="M279.53,170.328c-0.656-1.666-2.268-2.766-4.057-2.766h-13.148V69.24h-12.65v98.322h-13.15   c-1.799,0-3.412,1.107-4.061,2.785c-0.65,1.678-0.199,3.586,1.131,4.793l19.676,17.869c1.674,1.52,4.232,1.506,5.887-0.029   l19.277-17.867C279.747,173.895,280.181,171.996,279.53,170.328z"/>
	<g>
		<path fill="#0062A6" d="M129.897,278.617l-43.814,41.859c-1.957-3.84-5.014-7.016-8.74-9.133l45.492-43.49    C124.077,272.107,126.562,275.834,129.897,278.617z"/>
		<path fill="#0062A6" d="M209.155,293.061c-2.898,3.127-4.898,7.086-5.588,11.453l-43.748-27.553    c2.945-3.059,5.039-6.969,5.82-11.293L209.155,293.061z"/>
		<path fill="#0062A6" d="M295.979,254.973l-50.301,44.688c-1.633-4-4.438-7.428-7.98-9.842l50.461-44.805    C289.747,249.037,292.485,252.488,295.979,254.973z"/>
		<path fill="#0062A6" d="M463.003,176.883l-26.99-3.102c-2.066-0.232-4.078,0.801-5.09,2.627c-1.006,1.826-0.813,4.078,0.496,5.705    l8.172,10.164l-9.496,8.393l-70.979,62.697l-29.096-21.16c-1.037,4.254-3.336,8.027-6.463,10.926l32.223,23.438    c2.393,1.748,5.682,1.586,7.912-0.367l74.336-65.668l9.5-8.371l0.008-0.006l7.906,9.832c0.99,1.236,2.475,1.922,4.006,1.922    c0.479,0,0.965-0.068,1.439-0.207c1.992-0.58,3.441-2.305,3.674-4.371l2.965-26.775    C467.837,179.742,465.813,177.205,463.003,176.883z"/>
		<g>
			<path fill="#61D0A9" d="M308.63,214.906c-12.145,0-22.012,9.891-22.012,22.035c0,2.852,0.553,5.564,1.541,8.072     c1.588,4.023,4.326,7.475,7.82,9.959c3.59,2.506,7.936,3.98,12.65,3.98c5.75,0,10.994-2.209,14.928-5.82     c3.127-2.898,5.426-6.672,6.463-10.926c0.414-1.68,0.645-3.449,0.645-5.266C330.665,224.797,320.774,214.906,308.63,214.906z      M318.015,236.941c0,3.678-2.115,6.854-5.197,8.371h-0.023c-1.244,0.645-2.668,0.99-4.164,0.99c-0.873,0-1.725-0.117-2.506-0.346     c-3.955-1.08-6.855-4.715-6.855-9.016c0-0.689,0.07-1.357,0.207-2.002c0.92-4.209,4.67-7.383,9.154-7.383     c3.656,0,6.855,2.115,8.371,5.174C317.646,233.996,318.015,235.422,318.015,236.941z"/>
		</g>
		<g>
			<path fill="#61D0A9" d="M245.679,299.66c-1.633-4-4.438-7.428-7.98-9.842c-3.52-2.414-7.799-3.818-12.398-3.818     c-6.393,0-12.143,2.713-16.145,7.061c-2.898,3.127-4.898,7.086-5.588,11.453c-0.186,1.15-0.277,2.301-0.277,3.498     c0,12.143,9.867,22.033,22.01,22.033c12.145,0,22.035-9.891,22.035-22.033C247.335,305.045,246.737,302.236,245.679,299.66z      M225.3,317.396c-3.174,0-5.979-1.588-7.682-4.025c-1.057-1.496-1.678-3.361-1.678-5.359c0-3.336,1.748-6.258,4.369-7.914     c1.451-0.92,3.176-1.447,4.99-1.447c0.736,0,1.475,0.092,2.164,0.254c4.139,0.965,7.221,4.666,7.221,9.107     c0,0.527-0.045,1.033-0.137,1.516C233.835,313.99,229.948,317.396,225.3,317.396z"/>
		</g>
		<g>
			<path fill="#61D0A9" d="M143.974,239.654c-12.145,0-22.012,9.891-22.012,22.033c0,2.141,0.299,4.209,0.873,6.166     c1.242,4.254,3.727,7.98,7.063,10.764c3.818,3.174,8.717,5.082,14.076,5.082c6.211,0,11.846-2.598,15.846-6.738     c2.945-3.059,5.039-6.969,5.82-11.293c0.254-1.289,0.367-2.623,0.367-3.98C166.007,249.545,156.118,239.654,143.974,239.654z      M153.358,261.688c0,3.52-1.957,6.58-4.832,8.166c-1.357,0.758-2.896,1.195-4.553,1.195c-1.748,0-3.381-0.482-4.785-1.311     c-2.736-1.633-4.576-4.623-4.576-8.051c0-5.174,4.209-9.383,9.361-9.383h0.07c3.541,0.023,6.623,2.023,8.186,4.922     C152.944,258.561,153.358,260.078,153.358,261.688z"/>
		</g>
		<g>
			<path fill="#61D0A9" d="M66.452,308.422c-12.145,0-22.012,9.891-22.012,22.035c0,2.139,0.301,4.209,0.875,6.162     c1.24,4.256,3.725,7.98,7.061,10.764c3.818,3.176,8.717,5.084,14.076,5.084c6.211,0,11.846-2.6,15.846-6.738     c2.945-3.061,5.039-6.971,5.82-11.295c0.254-1.285,0.367-2.621,0.367-3.977C88.485,318.313,78.597,308.422,66.452,308.422z      M75.837,330.457c0,3.518-1.955,6.576-4.83,8.164c-1.359,0.76-2.9,1.195-4.555,1.195c-1.748,0-3.381-0.482-4.785-1.311     c-2.734-1.633-4.576-4.621-4.576-8.049c0-5.176,4.209-9.385,9.361-9.385h0.07c3.541,0.023,6.623,2.023,8.186,4.922     C75.423,327.328,75.837,328.846,75.837,330.457z"/>
		</g>
		<path fill="#0062A6" d="M439.593,192.275l-9.498,8.395l7.934,9.865l9.498-8.371L439.593,192.275z"/>
	</g>
</g>
</svg>
