<?xml version="1.0" encoding="utf-8"?>
<!-- Generator: Adobe Illustrator 16.0.0, SVG Export Plug-In . SVG Version: 6.00 Build 0)  -->
<!DOCTYPE svg PUBLIC "-//W3C//DTD SVG 1.1//EN" "http://www.w3.org/Graphics/SVG/1.1/DTD/svg11.dtd">
<svg xmlns="http://www.w3.org/2000/svg" xmlns:xlink="http://www.w3.org/1999/xlink" version="1.1" id="data_x5F_classification" x="0px" y="0px" width="512" height="512" viewBox="0 0 512 512" enable-background="new 0 0 512 512" xml:space="preserve">
<g>
	<path fill="#8BBCE2" d="M466.299,327.612c-0.656-1.668-2.264-2.766-4.057-2.766h-12.926v-43.107c0-3.492-2.83-6.324-6.326-6.324   H262.035v-72.221h-12.65v72.221H68.43c-3.492,0-6.326,2.832-6.326,6.324v43.107H48.895c-1.799,0-3.414,1.107-4.063,2.785   s-0.197,3.586,1.133,4.793l19.674,17.867c1.676,1.521,4.234,1.508,5.891-0.027l19.275-17.869c1.313-1.217,1.746-3.115,1.094-4.783   c-0.654-1.668-2.266-2.766-4.055-2.766h-13.09v-36.781h174.631v36.781h-13.148c-1.799,0-3.414,1.107-4.063,2.785   s-0.197,3.586,1.133,4.793l19.676,17.867c1.674,1.521,4.232,1.508,5.887-0.027l19.277-17.869c1.313-1.217,1.746-3.115,1.096-4.783   c-0.656-1.668-2.266-2.766-4.057-2.766h-13.15v-36.781h174.631v36.781h-13.373c-1.799,0-3.412,1.107-4.061,2.785   c-0.65,1.678-0.197,3.586,1.135,4.793l19.672,17.867c1.674,1.521,4.232,1.508,5.891-0.027l19.273-17.869   C466.518,331.179,466.953,329.28,466.299,327.612z"/>
	<rect x="32.25" y="75.044" fill="#8BBCE2" width="12.648" height="66.346"/>
	<rect x="249.486" y="75.044" fill="#8BBCE2" width="12.648" height="66.346"/>
	<rect x="467.102" y="75.038" fill="#8BBCE2" width="12.648" height="66.35"/>
	<circle fill="#0062A6" cx="68.726" cy="438.679" r="60.108"/>
	<path fill="#7ED4F8" d="M489.895,495.483h-89.688c-3.568,0-6.461-2.896-6.461-6.465v-89.684c0-3.57,2.893-6.465,6.461-6.465h89.688   c3.568,0,6.461,2.895,6.461,6.465v89.684C496.355,492.587,493.463,495.483,489.895,495.483z"/>
	<path fill="#61D0A9" d="M310.422,497.335H202.453c-5.176,0-8.461-5.547-5.973-10.086l53.623-97.752   c2.576-4.697,9.32-4.717,11.924-0.035l54.348,97.752C318.898,491.755,315.615,497.335,310.422,497.335z"/>
	<path fill="#8BBCE2" d="M212.836,49.634h-20.701v-12.65h20.701V49.634z M176.035,49.634h-20.699v-12.65h20.699V49.634z    M139.234,49.634h-20.699v-12.65h20.699V49.634z M102.436,49.634H81.734v-12.65h20.701V49.634z"/>
	<path fill="#8BBCE2" d="M430.262,49.634h-20.699v-12.65h20.699V49.634z M393.463,49.634h-20.701v-12.65h20.701V49.634z    M356.662,49.634h-20.699v-12.65h20.699V49.634z M319.863,49.634h-20.701v-12.65h20.701V49.634z"/>
	<path fill="#8BBCE2" d="M212.836,178.817h-20.701v-12.65h20.701V178.817z M176.035,178.817h-20.699v-12.65h20.699V178.817z    M139.234,178.817h-20.699v-12.65h20.699V178.817z M102.436,178.817H81.734v-12.65h20.701V178.817z"/>
	<path fill="#8BBCE2" d="M430.262,178.817h-20.699v-12.65h20.699V178.817z M393.463,178.817h-20.701v-12.65h20.701V178.817z    M356.662,178.817h-20.699v-12.65h20.699V178.817z M319.863,178.817h-20.701v-12.65h20.701V178.817z"/>
	<path fill="#3081BE" d="M62.096,312.196v12.65h12.627v-12.65H62.096z"/>
	<path fill="#3081BE" d="M249.373,312.196v12.65h12.625v-12.65H249.373z"/>
	<path fill="#3081BE" d="M249.373,203.206v12.648h12.625v-12.648H249.373z"/>
	<path fill="#3081BE" d="M249.496,75.038v12.65h12.629v-12.65H249.496z"/>
	<path fill="#3081BE" d="M249.496,128.741v12.648h12.629v-12.648H249.496z"/>
	<path fill="#3081BE" d="M467.113,75.03v12.648h12.627V75.03H467.113z"/>
	<path fill="#3081BE" d="M467.113,128.731v12.65h12.627v-12.65H467.113z"/>
	<path fill="#3081BE" d="M32.26,75.028v12.648h12.629V75.028H32.26z"/>
	<path fill="#3081BE" d="M32.26,128.729v12.65h12.629v-12.65H32.26z"/>
	<path fill="#3081BE" d="M436.66,312.196v12.65h12.627v-12.65H436.66z"/>
	<path fill="#FD7851" d="M66.031,75.038H11.117c-1.904,0-3.451-1.545-3.451-3.449V16.675c0-1.906,1.547-3.451,3.451-3.451h54.914   c1.904,0,3.449,1.545,3.449,3.451v54.914C69.48,73.493,67.936,75.038,66.031,75.038z"/>
	<path fill="#FD7851" d="M283.268,75.038h-54.914c-1.904,0-3.449-1.545-3.449-3.449V16.675c0-1.906,1.545-3.451,3.449-3.451h54.914   c1.904,0,3.449,1.545,3.449,3.451v54.914C286.717,73.493,285.172,75.038,283.268,75.038z"/>
	<path fill="#FD7851" d="M500.885,75.028h-54.916c-1.904,0-3.449-1.547-3.449-3.451V16.663c0-1.904,1.545-3.451,3.449-3.451h54.916   c1.904,0,3.449,1.547,3.449,3.451v54.914C504.334,73.481,502.789,75.028,500.885,75.028z"/>
	<path fill="#FD7851" d="M66.031,203.206H11.117c-1.904,0-3.451-1.547-3.451-3.451v-54.914c0-1.904,1.547-3.451,3.451-3.451h54.914   c1.904,0,3.449,1.547,3.449,3.451v54.914C69.48,201.659,67.936,203.206,66.031,203.206z"/>
	<path fill="#FD7851" d="M283.268,203.206h-54.914c-1.904,0-3.449-1.547-3.449-3.451v-54.914c0-1.904,1.545-3.451,3.449-3.451   h54.914c1.904,0,3.449,1.547,3.449,3.451v54.914C286.717,201.659,285.172,203.206,283.268,203.206z"/>
	<path fill="#FD7851" d="M500.885,203.194h-54.916c-1.904,0-3.449-1.545-3.449-3.451v-54.914c0-1.904,1.545-3.449,3.449-3.449   h54.916c1.904,0,3.449,1.545,3.449,3.449v54.914C504.334,201.649,502.789,203.194,500.885,203.194z"/>
</g>
</svg>
